<?xml version="1.0" encoding="utf-8"?>
<!-- Generator: Adobe Illustrator 21.0.2, SVG Export Plug-In . SVG Version: 6.00 Build 0)  -->
<svg version="1.1" id="shoppingCart" xmlns="http://www.w3.org/2000/svg" xmlns:xlink="http://www.w3.org/1999/xlink" x="0px" y="0px"
	 viewBox="0 0 46.4 39.3" style="enable-background:new 0 0 46.4 39.3;" xml:space="preserve">
<path d="M17.9,35.7c0,1-0.4,1.8-1.1,2.5s-1.5,1.1-2.5,1.1s-1.8-0.4-2.5-1.1c-0.7-0.7-1.1-1.5-1.1-2.5s0.4-1.8,1.1-2.5
	c0.7-0.7,1.5-1.1,2.5-1.1s1.8,0.4,2.5,1.1C17.5,33.9,17.9,34.7,17.9,35.7z M42.9,35.7c0,1-0.4,1.8-1.1,2.5c-0.7,0.7-1.5,1.1-2.5,1.1
	s-1.8-0.4-2.5-1.1s-1.1-1.5-1.1-2.5s0.4-1.8,1.1-2.5c0.7-0.7,1.5-1.1,2.5-1.1s1.8,0.4,2.5,1.1S42.9,34.7,42.9,35.7z M46.4,5.4v14.3
	c0,0.4-0.2,0.8-0.5,1.2c-0.3,0.3-0.7,0.5-1.1,0.6l-29.1,3.4c0.2,1.1,0.4,1.8,0.4,2c0,0.3-0.2,0.9-0.7,1.8h25.7
	c0.5,0,0.9,0.2,1.3,0.5c0.4,0.4,0.5,0.8,0.5,1.3s-0.2,0.9-0.5,1.3c-0.4,0.4-0.8,0.5-1.3,0.5H12.5c-0.5,0-0.9-0.2-1.3-0.5
	c-0.4-0.4-0.5-0.8-0.5-1.3c0-0.2,0.1-0.5,0.2-0.9c0.1-0.4,0.3-0.7,0.4-1s0.3-0.7,0.6-1.1c0.3-0.5,0.4-0.7,0.4-0.8l-4.9-23H1.8
	C1.3,3.6,0.9,3.4,0.5,3C0.2,2.7,0,2.3,0,1.8s0.2-0.9,0.5-1.3C0.9,0.2,1.3,0,1.8,0h7.1c0.3,0,0.6,0.1,0.8,0.2s0.4,0.3,0.5,0.4
	c0.1,0.2,0.3,0.4,0.4,0.7c0.1,0.3,0.2,0.5,0.2,0.7s0.1,0.5,0.2,0.8c0.1,0.4,0.1,0.6,0.1,0.7h33.5c0.5,0,0.9,0.2,1.3,0.5
	C46.3,4.5,46.4,4.9,46.4,5.4L46.4,5.4z"/>
</svg>
